# xmcd CD database file
#
# Track frame offsets:
#	150
#	13575
#	32025
#	48375
#	64275
#	79950
#	93450
#	104025
#	119775
#	132000
#	147225
#	164175
#	177150
#	195075
#
# Disc length: 2838 seconds
#
# Revision: 1
# Processed by: cddbd v1.5.1PL2 Copyright (c) Steve Scherf et al.
# Submitted via: freeDBTagger 0.8.2.1
#
DISCID=ca0b140e
DTITLE=Frank Sinatra - My Way, The Best Of Frank Sinatra [CD2]
DYEAR=2002
DGENRE=misc
TTITLE0=Let's Face The Music and Dance
TTITLE1=Come Rain Or Come Shine
TTITLE2=Night And Day
TTITLE3=The Very Thought Of You
TTITLE4=Pennies From Heaven
TTITLE5=Bewitched
TTITLE6=America The Beautiful
TTITLE7=All The Way
TTITLE8=In The Wee Small Hours Of The Morning
TTITLE9=The Way You Look Tonight
TTITLE10=Three Coins In The Fountain
TTITLE11=Softly As I Leave You
TTITLE12=All Or Nothing At All
TTITLE13=Yesterday
EXTD=
EXTT0=
EXTT1=
EXTT2=
EXTT3=
EXTT4=
EXTT5=
EXTT6=
EXTT7=
EXTT8=
EXTT9=
EXTT10=
EXTT11=
EXTT12=
EXTT13=
PLAYORDER=
